<svg width="526" height="526" viewBox="0 0 526 526" fill="none" xmlns="http://www.w3.org/2000/svg">
<path d="M460.25 416.417C460.25 428.471 455.958 438.79 447.374 447.374C438.79 455.958 428.471 460.25 416.417 460.25L109.583 460.25C97.5292 460.25 87.2101 455.958 78.626 447.374C70.042 438.79 65.75 428.471 65.75 416.417L65.75 306.833L460.25 306.833L460.25 416.417ZM460.25 263C460.25 269.21 458.15 274.415 453.949 278.616C449.748 282.816 444.543 284.917 438.333 284.917C432.124 284.917 426.918 282.816 422.718 278.616C418.517 274.415 416.417 269.21 416.417 263C416.417 256.79 418.517 251.585 422.718 247.384C426.918 243.184 432.124 241.083 438.333 241.083C444.543 241.083 449.748 243.184 453.949 247.384C458.15 251.585 460.25 256.79 460.25 263ZM372.583 263C372.583 269.21 370.483 274.415 366.282 278.616C362.082 282.816 356.876 284.917 350.667 284.917C344.457 284.917 339.252 282.816 335.051 278.616C330.85 274.415 328.75 269.21 328.75 263C328.75 256.79 330.85 251.585 335.051 247.384C339.252 243.184 344.457 241.083 350.667 241.083C356.876 241.083 362.082 243.184 366.282 247.384C370.483 251.585 372.583 256.79 372.583 263ZM284.917 263C284.917 269.21 282.816 274.415 278.616 278.616C274.415 282.816 269.21 284.917 263 284.917C256.79 284.917 251.585 282.816 247.384 278.616C243.184 274.415 241.083 269.21 241.083 263C241.083 256.79 243.184 251.585 247.384 247.384C251.585 243.184 256.79 241.083 263 241.083C269.21 241.083 274.415 243.184 278.616 247.384C282.816 251.585 284.917 256.79 284.917 263ZM197.25 263C197.25 269.21 195.15 274.415 190.949 278.616C186.748 282.816 181.543 284.917 175.333 284.917C169.124 284.917 163.918 282.816 159.718 278.616C155.517 274.415 153.417 269.21 153.417 263C153.417 256.79 155.517 251.585 159.718 247.384C163.918 243.184 169.124 241.083 175.333 241.083C181.543 241.083 186.748 243.184 190.949 247.384C195.15 251.585 197.25 256.79 197.25 263ZM109.583 263C109.583 269.21 107.483 274.415 103.282 278.616C99.0816 282.816 93.8764 284.917 87.6667 284.917C81.4569 284.917 76.2517 282.816 72.051 278.616C67.8503 274.415 65.75 269.21 65.75 263C65.75 256.79 67.8503 251.585 72.051 247.384C76.2517 243.184 81.4569 241.083 87.6667 241.083C93.8764 241.083 99.0816 243.184 103.282 247.384C107.483 251.585 109.583 256.79 109.583 263ZM416.417 219.167C416.417 225.376 414.316 230.582 410.116 234.782C405.915 238.983 400.71 241.083 394.5 241.083C388.29 241.083 383.085 238.983 378.884 234.782C374.684 230.582 372.583 225.376 372.583 219.167C372.583 212.957 374.684 207.752 378.884 203.551C383.085 199.35 388.29 197.25 394.5 197.25C400.71 197.25 405.915 199.35 410.116 203.551C414.316 207.752 416.417 212.957 416.417 219.167ZM328.75 219.167C328.75 225.376 326.65 230.582 322.449 234.782C318.248 238.983 313.043 241.083 306.833 241.083C300.624 241.083 295.418 238.983 291.218 234.782C287.017 230.582 284.917 225.376 284.917 219.167C284.917 212.957 287.017 207.752 291.218 203.551C295.418 199.35 300.624 197.25 306.833 197.25C313.043 197.25 318.248 199.35 322.449 203.551C326.65 207.752 328.75 212.957 328.75 219.167ZM241.083 219.167C241.083 225.376 238.983 230.582 234.782 234.782C230.582 238.983 225.376 241.083 219.167 241.083C212.957 241.083 207.752 238.983 203.551 234.782C199.35 230.582 197.25 225.376 197.25 219.167C197.25 212.957 199.35 207.752 203.551 203.551C207.752 199.35 212.957 197.25 219.167 197.25C225.376 197.25 230.582 199.35 234.782 203.551C238.983 207.752 241.083 212.957 241.083 219.167ZM153.417 219.167C153.417 225.376 151.316 230.582 147.116 234.782C142.915 238.983 137.71 241.083 131.5 241.083C125.29 241.083 120.085 238.983 115.884 234.782C111.684 230.582 109.583 225.376 109.583 219.167C109.583 212.957 111.684 207.752 115.884 203.551C120.085 199.35 125.29 197.25 131.5 197.25C137.71 197.25 142.915 199.35 147.116 203.551C151.316 207.752 153.417 212.957 153.417 219.167ZM460.25 175.333C460.25 181.543 458.15 186.748 453.949 190.949C449.748 195.15 444.543 197.25 438.333 197.25C432.124 197.25 426.918 195.15 422.718 190.949C418.517 186.748 416.417 181.543 416.417 175.333C416.417 169.124 418.517 163.918 422.718 159.718C426.918 155.517 432.124 153.417 438.333 153.417C444.543 153.417 449.748 155.517 453.949 159.718C458.15 163.918 460.25 169.124 460.25 175.333ZM372.583 175.333C372.583 181.543 370.483 186.748 366.282 190.949C362.082 195.15 356.876 197.25 350.667 197.25C344.457 197.25 339.252 195.15 335.051 190.949C330.85 186.748 328.75 181.543 328.75 175.333C328.75 169.124 330.85 163.918 335.051 159.718C339.252 155.517 344.457 153.417 350.667 153.417C356.876 153.417 362.082 155.517 366.282 159.718C370.483 163.918 372.583 169.124 372.583 175.333ZM284.917 175.333C284.917 181.543 282.816 186.748 278.616 190.949C274.415 195.15 269.21 197.25 263 197.25C256.79 197.25 251.585 195.15 247.384 190.949C243.184 186.748 241.083 181.543 241.083 175.333C241.083 169.124 243.184 163.918 247.384 159.718C251.585 155.517 256.79 153.417 263 153.417C269.21 153.417 274.415 155.517 278.616 159.718C282.816 163.918 284.917 169.124 284.917 175.333ZM197.25 175.333C197.25 181.543 195.15 186.748 190.949 190.949C186.748 195.15 181.543 197.25 175.333 197.25C169.124 197.25 163.918 195.15 159.718 190.949C155.517 186.748 153.417 181.543 153.417 175.333C153.417 169.124 155.517 163.918 159.718 159.718C163.918 155.517 169.124 153.417 175.333 153.417C181.543 153.417 186.748 155.517 190.949 159.718C195.15 163.918 197.25 169.124 197.25 175.333ZM109.583 175.333C109.583 181.543 107.483 186.748 103.282 190.949C99.0816 195.15 93.8764 197.25 87.6667 197.25C81.4569 197.25 76.2517 195.15 72.051 190.949C67.8503 186.748 65.75 181.543 65.75 175.333C65.75 169.124 67.8503 163.918 72.051 159.718C76.2517 155.517 81.4569 153.417 87.6667 153.417C93.8764 153.417 99.0816 155.517 103.282 159.718C107.483 163.918 109.583 169.124 109.583 175.333ZM416.417 131.5C416.417 137.71 414.316 142.915 410.116 147.116C405.915 151.316 400.71 153.417 394.5 153.417C388.29 153.417 383.085 151.316 378.884 147.116C374.684 142.915 372.583 137.71 372.583 131.5C372.583 125.29 374.684 120.085 378.884 115.884C383.085 111.684 388.29 109.583 394.5 109.583C400.71 109.583 405.915 111.684 410.116 115.884C414.316 120.085 416.417 125.29 416.417 131.5ZM328.75 131.5C328.75 137.71 326.65 142.915 322.449 147.116C318.248 151.316 313.043 153.417 306.833 153.417C300.624 153.417 295.418 151.316 291.218 147.116C287.017 142.915 284.917 137.71 284.917 131.5C284.917 125.29 287.017 120.085 291.218 115.884C295.418 111.684 300.624 109.583 306.833 109.583C313.043 109.583 318.248 111.684 322.449 115.884C326.65 120.085 328.75 125.29 328.75 131.5ZM241.083 131.5C241.083 137.71 238.983 142.915 234.782 147.116C230.582 151.316 225.376 153.417 219.167 153.417C212.957 153.417 207.752 151.316 203.551 147.116C199.35 142.915 197.25 137.71 197.25 131.5C197.25 125.29 199.35 120.085 203.551 115.884C207.752 111.684 212.957 109.583 219.167 109.583C225.376 109.583 230.582 111.684 234.782 115.884C238.983 120.085 241.083 125.29 241.083 131.5ZM153.417 131.5C153.417 137.71 151.316 142.915 147.116 147.116C142.915 151.316 137.71 153.417 131.5 153.417C125.29 153.417 120.085 151.316 115.884 147.116C111.684 142.915 109.583 137.71 109.583 131.5C109.583 125.29 111.684 120.085 115.884 115.884C120.085 111.684 125.29 109.583 131.5 109.583C137.71 109.583 142.915 111.684 147.116 115.884C151.316 120.085 153.417 125.29 153.417 131.5ZM460.25 87.6667C460.25 93.8764 458.15 99.0816 453.949 103.282C449.748 107.483 444.543 109.583 438.333 109.583C432.124 109.583 426.918 107.483 422.718 103.282C418.517 99.0816 416.417 93.8764 416.417 87.6667C416.417 81.457 418.517 76.2517 422.718 72.0511C426.918 67.8504 432.124 65.75 438.333 65.75C444.543 65.75 449.748 67.8504 453.949 72.0511C458.15 76.2517 460.25 81.457 460.25 87.6667ZM372.583 87.6667C372.583 93.8764 370.483 99.0816 366.282 103.282C362.082 107.483 356.876 109.583 350.667 109.583C344.457 109.583 339.252 107.483 335.051 103.282C330.85 99.0816 328.75 93.8764 328.75 87.6667C328.75 81.457 330.85 76.2517 335.051 72.0511C339.252 67.8504 344.457 65.75 350.667 65.75C356.876 65.75 362.082 67.8504 366.282 72.0511C370.483 76.2517 372.583 81.457 372.583 87.6667ZM284.917 87.6667C284.917 93.8764 282.816 99.0816 278.616 103.282C274.415 107.483 269.21 109.583 263 109.583C256.79 109.583 251.585 107.483 247.384 103.282C243.184 99.0816 241.083 93.8764 241.083 87.6667C241.083 81.457 243.184 76.2517 247.384 72.0511C251.585 67.8504 256.79 65.75 263 65.75C269.21 65.75 274.415 67.8504 278.616 72.0511C282.816 76.2517 284.917 81.457 284.917 87.6667ZM197.25 87.6667C197.25 93.8764 195.15 99.0816 190.949 103.282C186.748 107.483 181.543 109.583 175.333 109.583C169.124 109.583 163.918 107.483 159.718 103.282C155.517 99.0816 153.417 93.8764 153.417 87.6667C153.417 81.457 155.517 76.2517 159.718 72.0511C163.918 67.8504 169.124 65.75 175.333 65.75C181.543 65.75 186.748 67.8504 190.949 72.0511C195.15 76.2517 197.25 81.457 197.25 87.6667ZM109.583 87.6667C109.583 93.8764 107.483 99.0816 103.282 103.282C99.0816 107.483 93.8764 109.583 87.6667 109.583C81.4569 109.583 76.2517 107.483 72.051 103.282C67.8503 99.0816 65.75 93.8764 65.75 87.6667C65.75 81.457 67.8503 76.2517 72.051 72.0511C76.2517 67.8504 81.4569 65.75 87.6667 65.75C93.8764 65.75 99.0816 67.8504 103.282 72.0511C107.483 76.2517 109.583 81.457 109.583 87.6667Z" fill="url(#paint0_linear_101_252)"/>
<defs>
<linearGradient id="paint0_linear_101_252" x1="65.75" y1="263" x2="460.25" y2="263" gradientUnits="userSpaceOnUse">
<stop offset="0.125" stop-color="#C7FC66"/>
<stop offset="0.4" stop-color="#66C0F9"/>
<stop offset="1" stop-color="#E637ED"/>
</linearGradient>
</defs>
</svg>
